<svg xmlns="http://www.w3.org/2000/svg" enable-background="new 0 0 67 67" viewBox="0 0 67 67"><path fill="#FFF" d="M64.52369 33.04579c0 2.75362-2.23656 4.97962-4.99012 4.97962-2.75349 0-4.99005-2.226-4.99005-4.97962 0-2.76392 2.23656-4.99005 4.99005-4.99005C62.28712 28.05574 64.52369 30.28187 64.52369 33.04579zM11.92012 33.04579c0 2.75362-2.23656 4.97962-4.99012 4.97962-2.75349 0-4.99005-2.226-4.99005-4.97962 0-2.76392 2.23656-4.99005 4.99005-4.99005C9.68356 28.05574 11.92012 30.28187 11.92012 33.04579zM33.23708 1.74863c2.75362 0 4.97962 2.23656 4.97962 4.99012 0 2.75349-2.226 4.99005-4.97962 4.99005-2.76392 0-4.99005-2.23656-4.99005-4.99005C28.24703 3.98519 30.47316 1.74863 33.23708 1.74863zM33.23709 54.3522c2.75362 0 4.97962 2.23656 4.97962 4.99012 0 2.75349-2.226 4.99006-4.97962 4.99006-2.76392 0-4.99005-2.23656-4.99005-4.99006C28.24704 56.58876 30.47317 54.3522 33.23709 54.3522z"/><path fill="#BDD7F0" d="M65.56283 34.46206c0 2.75362-2.23656 4.97962-4.99012 4.97962-2.75349 0-4.99005-2.226-4.99005-4.97962 0-2.76392 2.23656-4.99005 4.99005-4.99005C63.32627 29.47201 65.56283 31.69813 65.56283 34.46206zM12.95926 34.46206c0 2.75362-2.23656 4.97962-4.99012 4.97962-2.75349 0-4.99005-2.226-4.99005-4.97962 0-2.76392 2.23656-4.99005 4.99005-4.99005C10.7227 29.47201 12.95926 31.69813 12.95926 34.46206z"/><path fill="#3EBDA7" d="M34.27623 3.16489c2.75362 0 4.97962 2.23656 4.97962 4.99012 0 2.75349-2.226 4.99005-4.97962 4.99005-2.76392 0-4.99005-2.23656-4.99005-4.99005C29.28617 5.40145 31.5123 3.16489 34.27623 3.16489zM34.27623 55.76846c2.75362 0 4.97962 2.23656 4.97962 4.99012 0 2.75349-2.226 4.99005-4.97962 4.99005-2.76392 0-4.99005-2.23656-4.99005-4.99005C29.28618 58.00502 31.51231 55.76846 34.27623 55.76846z"/><rect width="7.163" height="7.163" x="58.4" y="3.166" fill="#48A0D9"/><rect width="7.163" height="7.163" x="4.038" y="57.527" fill="#48A0D9"/><rect width="7.163" height="7.163" x="4.038" y="3.166" fill="#F6968A"/><rect width="7.163" height="7.163" x="58.4" y="57.527" fill="#F6968A"/><g><rect width="9.818" height="9.828" x="29.067" y="27.384" fill="#FFF"/><path fill="#223059" d="M47.60716,45.67129l8.42004-8.42004c0.94995,0.80005,2.17999,1.27002,3.50995,1.27002
			c3.02002,0,5.49005-2.44995,5.49005-5.47998c0-3.02002-2.47003-5.48999-5.49005-5.48999c-1.32996,0-2.56,0.47998-3.50995,1.28003
			l-8.94-8.94006L57.56718,9.41128h7.45001V1.25125h-8.17004v7.46997L46.37718,19.1813l-8.93005-8.93005h0.00006
			c0.79999-0.95996,1.27002-2.17993,1.27002-3.51001c0-3.03003-2.46002-5.48999-5.48004-5.48999
			c-3.02997,0-5.48999,2.45996-5.48999,5.48999c0,1.33008,0.47998,2.54004,1.27002,3.5l-8.42004,8.42004L10.6472,8.71121V1.25125
			H2.48716v8.16003h7.45001l9.96002,9.96008l0,0l-9.46002,9.45996c-0.95001-0.80005-2.16998-1.28003-3.51001-1.28003
			c-3.02002,0-5.48999,2.46997-5.48999,5.48999c0,3.03003,2.46997,5.47998,5.48999,5.47998c1.34003,0,2.56-0.46997,3.51001-1.27002
			l8.92999,8.93994l-9.4201,9.42017h-7.4599v8.15991h8.16003v-7.43994l9.42999-9.43005l0,0l8.94,8.94006
			c-0.79004,0.94995-1.27002,2.16992-1.27002,3.5c0,3.03003,2.46002,5.48999,5.48999,5.48999
			c3.02002,0,5.48004-2.45996,5.48004-5.48999c0-1.33008-0.47003-2.56006-1.27002-3.51001l9.45996-9.44995l9.94,9.93994v7.44995
			h8.17004v-8.15991h-7.47003L47.60716,45.67129z M9.6472,8.41128H3.48716V2.25125H9.6472V8.41128z M59.53715,28.5513
			c2.47003,0,4.49005,2.02002,4.49005,4.48999s-2.02002,4.47998-4.49005,4.47998c-2.47873,0-4.48999-2.01227-4.48999-4.47998
			C55.04716,30.62499,57.02312,28.5513,59.53715,28.5513z M46.37718,20.60135l8.94,8.92993
			c-0.68909,0.83899-1.13855,1.86743-1.23926,3.00574l-4.83459-4.83459l-0.70703,0.70703l4.63135,4.63135l-4.63086,4.63086
			l0.70703,0.70703l4.83392-4.83398c0.10059,1.13879,0.55017,2.17737,1.23944,3.00659l-8.41998,8.40991l-7.51001-7.51001v-9.85986
			L46.37718,20.60135L46.37718,20.60135z M29.56718,36.71121v-0.71997v-6.94995v-1.15991h0.25h7.87h0.70001v0.70996v7.85986v0.26001
			h-1.15002h-6.96997H29.56718z M57.84715,2.25125h6.17004v6.16003h-6.17004V2.25125z M28.74717,6.74124
			c0-2.47998,2.01001-4.48999,4.48999-4.48999c2.47003,0,4.48004,2.01001,4.48004,4.48999
			c0,2.42606-1.96418,4.48999-4.48004,4.48999C30.8049,11.23123,28.74717,9.24655,28.74717,6.74124z M29.72715,10.9512
			c0.82001,0.69006,1.86005,1.15015,2.99005,1.25c0.00061,0,0.00122,0,0.00183,0.00012l-4.26721,4.26721l0.70703,0.70703
			l4.07178-4.07178l4.28613,4.28613l0.70703-0.70703l-4.48242-4.48242c1.13818-0.10059,2.16681-0.55005,2.99579-1.23926
			l8.94,8.93005l-6.98999,6.99011h-9.87l-7.51001-7.51001L29.72715,10.9512z M6.92716,37.52127
			c-2.46997,0-4.48999-2.01001-4.48999-4.47998s2.02002-4.48999,4.48999-4.48999c2.50147,0,4.48999,2.04085,4.48999,4.48999
			C11.41716,35.46732,9.44965,37.52127,6.92716,37.52127z M11.1472,36.5513L11.1472,36.5513c0.69-0.83008,1.13995-1.87,1.23999-3
			c0.00012-0.00098,0.00006-0.00183,0.00018-0.00269l4.83057,4.83008l0.70703-0.70703l-4.63135-4.63086l6.05176-6.05176
			l-0.70703-0.70703l-6.25104,6.25098c-0.00006-0.00049-0.00006-0.0011-0.00012-0.00171c-0.10004-1.13-0.54999-2.16992-1.23999-3
			l9.45996-9.44995l0,0l7.96002,7.95996v8.94995l-8.48999,8.48999L11.1472,36.5513z M9.6472,62.77127H3.48716v-6.15991H9.6472
			V62.77127z M37.71721,59.34134c0,2.47998-2.01001,4.48999-4.48004,4.48999c-2.47998,0-4.48999-2.01001-4.48999-4.48999
			c0-2.50566,2.05356-4.48999,4.48999-4.48999C35.74412,54.85135,37.71721,56.90541,37.71721,59.34134z M36.73716,55.12136
			c-0.82916-0.68933-1.85797-1.13892-2.99658-1.2395l5.23517-5.23462l-0.70703-0.70703l-5.03809,5.0376l-5.18848-5.18848
			l-0.70703,0.70703l5.38483,5.38477c-0.00092,0.00024-0.00183,0.00012-0.00275,0.00024
			c-1.13001,0.09985-2.17005,0.55994-2.99005,1.25l-8.94-8.94006l0,0l8.48004-8.4801h8.96997l7.96002,7.96008L36.73716,55.12136z
			 M57.84715,56.61135h6.17004v6.15991h-6.17004V56.61135z"/></g></svg>